<?xml version="1.0" encoding="UTF-8"?>
<svg width="180px" height="180px" viewBox="0 0 180 180" xmlns="http://www.w3.org/2000/svg">
  <!-- Violet background circle -->
  <circle cx="90" cy="90" r="86" fill="#7026f7" stroke="#ffffff" stroke-width="4"/>

  <!-- Laptop outline -->
  <g transform="translate(50,55)">
    <!-- Screen -->
    <rect x="12" y="8" width="58" height="42" rx="4" fill="none" stroke="#ffffff" stroke-width="4"/>
    <!-- Keyboard -->
    <rect x="8" y="52" width="66" height="8" rx="2" fill="#ffffff"/>
    <!-- Trackpad -->
    <rect x="22" y="62" width="38" height="6" rx="2" fill="#ffffff" opacity="0.6"/>
    <!-- Circuit accent -->
    <path d="M20,30 h10 m10,0 h20 m-15,-10 v20" stroke="#ffffff" stroke-width="2" fill="none"/>
  </g>

  <!-- Report pages (stacked) -->
  <!-- <g transform="translate(90,70)"> -->
  <!--   <rect x="-22" y="-15" width="28" height="36" rx="2" fill="#ffffff" opacity="0.9"/> -->
  <!--   <rect x="-18" y="-11" width="28" height="36" rx="2" fill="none" stroke="#7026f7" stroke-width="2"/> -->
  <!--   <rect x="-14" y="-7" width="28" height="36" rx="2" fill="#ffffff"/> -->
    <!-- Fold lines -->
  <!--   <path d="M-14,-7 l4,4 m0,-4 l-4,4" stroke="#7026f7" stroke-width="1.5" fill="none"/> -->
  <!-- </g> -->

  <!-- Outer violet ring glow -->
  <circle cx="90" cy="90" r="88" fill="none" stroke="#7026f7" stroke-width="8" opacity="0.4"/>

  <!-- Optional text (uncomment to add) -->
  <!--
  <text x="90" y="145" font-family="Arial, sans-serif" font-weight="bold" font-size="18" 
        fill="#ffffff" text-anchor="middle">IT Hub</text>
  -->
</svg>
